<svg width="248" height="114" viewBox="0 0 248 114" fill="none" xmlns="http://www.w3.org/2000/svg">
<g clip-path="url(#clip0_65_2)">
<path d="M85.5906 0.33284C81.6113 1.15359 77.5129 4.1482 75.702 7.56428C73.4145 11.8898 73.6527 17.0361 76.3215 20.8959L77.1793 22.1603L72.6281 27.5506C70.1262 30.523 67.934 33.0962 67.7434 33.2958C67.4574 33.6285 67.5766 33.7838 69.0063 34.7155C69.8641 35.2922 71.127 36.2017 71.7703 36.7341C72.4137 37.2664 72.9855 37.7101 73.0332 37.7101C73.0809 37.7101 75.2492 35.2035 77.8227 32.1645C80.3961 29.1033 82.5883 26.5524 82.7074 26.4858C82.8266 26.4193 83.6129 26.5745 84.4469 26.8186C89.0457 28.1495 93.9305 27.3066 97.8621 24.5338C101.389 22.0494 103.486 18.0565 103.509 13.8641C103.509 11.3575 103.152 9.91561 101.913 7.56428C99.0297 2.06306 92.1672 -0.9981 85.5906 0.33284Z" fill="white"/>
<path d="M14.3885 23.3941C12.8157 23.8932 11.797 24.4756 10.671 25.5404C8.90162 27.1876 7.75777 30.1159 8.04373 32.2456C8.50842 35.7064 10.9748 38.4849 14.5672 39.5831C16.4617 40.1654 19.7324 39.8659 21.3052 38.9508L21.895 38.6347L23.718 40.1155L25.5232 41.6129L26.2381 40.7644C26.6313 40.2819 27.4356 39.4333 28.0253 38.8843L29.0798 37.8693L27.2747 36.3885C25.9879 35.357 25.4874 34.8578 25.5589 34.6748C26.5419 32.3454 26.3096 29.284 25.0049 27.2042C24.29 26.0728 22.5027 24.4756 21.341 23.9432C19.089 22.9282 16.4975 22.7119 14.3885 23.3941Z" fill="white"/>
<path d="M47.6562 36.4899C45.0113 36.9336 42.1757 37.8652 40.1503 38.93C29.38 44.653 25.1386 56.8755 30.3808 67.1681C31.739 69.8078 33.0734 71.5602 35.2894 73.5566C39.9121 77.6825 45.1066 79.6567 51.4449 79.6567C55.591 79.6567 58.9269 78.9025 62.5011 77.128C68.339 74.2442 72.5566 69.1645 74.2484 62.9978C74.6058 61.6669 74.7011 60.6021 74.6773 57.674C74.6535 54.3689 74.6058 53.8143 74.0339 52.0619C71.7226 45.0301 66.2183 39.6398 58.9746 37.3328C55.4718 36.2237 51.1828 35.9132 47.6562 36.4899Z" fill="white"/>
<path d="M96.3133 67.0128C92.8105 67.5896 89.3555 69.1423 86.4484 71.4715L84.7805 72.8024L82.207 71.3384C80.7773 70.5398 79.5145 69.8744 79.3953 69.8744C79.3 69.8744 78.9664 70.3402 78.6566 70.9169C78.3469 71.5159 77.5844 72.6915 76.941 73.5788C76.2977 74.4661 75.7734 75.2647 75.7734 75.3534C75.7734 75.4421 77.0125 76.2185 78.5137 77.0393C81.1586 78.5255 81.2062 78.592 80.9918 79.1466C80.0387 81.4535 79.8004 85.7569 80.4437 88.685C82.35 97.4692 91.0949 103.658 100.745 103.081C106.583 102.726 111.587 100.198 115.138 95.8499C121.5 88.0195 119.855 76.64 111.492 70.6286C108.132 68.2329 104.462 66.9907 100.197 66.8797C98.7676 66.8354 97.0043 66.8797 96.3133 67.0128Z" fill="white"/>
<path d="M27.1641 82.5627C25.4008 84.7366 23.8281 86.6664 23.6852 86.8439C23.4707 87.1101 23.2086 87.0879 21.9695 86.733C13.9633 84.4038 5.28984 89.0621 3.31211 96.715C2.90703 98.29 2.90703 101.373 3.31211 102.926C4.28906 106.764 7.29141 110.291 10.9609 111.999C15.4406 114.039 19.9441 114.084 24.2809 112.087C26.8066 110.934 29.5707 108.361 30.8098 106.009C33.0973 101.662 32.859 96.5376 30.1664 92.6335C29.6898 91.9236 29.3324 91.2138 29.4039 91.0363C29.4754 90.8811 30.9766 88.9512 32.7637 86.7552C34.527 84.5591 35.9805 82.6736 35.9805 82.5849C35.9805 82.4961 35.3371 82.0303 34.5746 81.5645C33.7883 81.0987 32.6922 80.3445 32.1203 79.9008C31.5484 79.435 30.9289 78.9692 30.7383 78.8361C30.4523 78.6142 29.8328 79.2575 27.1641 82.5627Z" fill="white"/>
</g>
<path d="M121.8 61.48C120.227 61.48 118.707 61.1867 117.24 60.6C115.773 59.9867 114.52 59.1333 113.48 58.04C112.44 56.92 111.76 55.5867 111.44 54.04L116.92 52.2C117.32 53.48 117.96 54.4133 118.84 55C119.72 55.5867 120.707 55.88 121.8 55.88C122.733 55.88 123.547 55.6933 124.24 55.32C124.933 54.92 125.467 54.3733 125.84 53.68C126.24 52.96 126.44 52.1333 126.44 51.2C126.44 50.2667 126.24 49.4533 125.84 48.76C125.467 48.0667 124.933 47.5333 124.24 47.16C123.547 46.76 122.733 46.56 121.8 46.56C120.84 46.56 119.987 46.7733 119.24 47.2C118.493 47.6 117.947 48.2267 117.6 49.08L112.52 47.88L114.92 31.2H131.56V36.4H117.44L119.76 33.6L118.12 46L116.44 44.52C117.107 43.4267 117.947 42.6267 118.96 42.12C120 41.6133 121.333 41.36 122.96 41.36C124.96 41.36 126.68 41.7867 128.12 42.64C129.56 43.4667 130.667 44.6133 131.44 46.08C132.24 47.5467 132.64 49.2533 132.64 51.2C132.64 53.1467 132.16 54.9067 131.2 56.48C130.267 58.0267 128.987 59.2533 127.36 60.16C125.733 61.04 123.88 61.48 121.8 61.48ZM151.53 61.48C149.397 61.48 147.41 61.0933 145.57 60.32C143.73 59.5467 142.117 58.4667 140.73 57.08C139.344 55.6933 138.264 54.0667 137.49 52.2C136.717 50.3333 136.33 48.2933 136.33 46.08C136.33 43.8667 136.704 41.8267 137.45 39.96C138.197 38.0667 139.25 36.44 140.61 35.08C141.97 33.6933 143.557 32.6267 145.37 31.88C147.21 31.1067 149.21 30.72 151.37 30.72C153.53 30.72 155.464 31.08 157.17 31.8C158.904 32.52 160.37 33.48 161.57 34.68C162.77 35.88 163.624 37.2133 164.13 38.68L158.65 41.32C158.144 39.88 157.25 38.6933 155.97 37.76C154.717 36.8 153.184 36.32 151.37 36.32C149.61 36.32 148.064 36.7333 146.73 37.56C145.397 38.3867 144.357 39.5333 143.61 41C142.89 42.44 142.53 44.1333 142.53 46.08C142.53 48.0267 142.917 49.7333 143.69 51.2C144.464 52.6667 145.517 53.8133 146.85 54.64C148.21 55.4667 149.77 55.88 151.53 55.88C152.89 55.88 154.157 55.6267 155.33 55.12C156.53 54.5867 157.49 53.8267 158.21 52.84C158.957 51.8533 159.33 50.6667 159.33 49.28V46.8L162.17 49.2H151.37V44H165.53V47.16C165.53 49.5867 165.13 51.7067 164.33 53.52C163.53 55.3067 162.45 56.8 161.09 58C159.757 59.1733 158.25 60.0533 156.57 60.64C154.917 61.2 153.237 61.48 151.53 61.48ZM187.386 61.48C185.52 61.48 183.76 61.1467 182.106 60.48C180.48 59.7867 179.066 58.8133 177.866 57.56C176.693 56.3067 175.813 54.8267 175.226 53.12L180.306 50.84C181.053 52.4667 182.08 53.7467 183.386 54.68C184.72 55.6133 186.186 56.08 187.786 56.08C188.64 56.08 189.373 55.9467 189.986 55.68C190.6 55.4133 191.08 55.0533 191.426 54.6C191.773 54.12 191.946 53.56 191.946 52.92C191.946 52.2267 191.733 51.64 191.306 51.16C190.88 50.6533 190.213 50.2533 189.306 49.96L183.466 48.04C181.093 47.2667 179.306 46.1733 178.106 44.76C176.906 43.32 176.306 41.6 176.306 39.6C176.306 37.84 176.733 36.2933 177.586 34.96C178.466 33.6267 179.68 32.5867 181.226 31.84C182.8 31.0933 184.6 30.72 186.626 30.72C188.413 30.72 190.066 31.0267 191.586 31.64C193.106 32.2533 194.413 33.12 195.506 34.24C196.626 35.36 197.466 36.7067 198.026 38.28L192.986 40.56C192.426 39.1733 191.586 38.0933 190.466 37.32C189.346 36.52 188.066 36.12 186.626 36.12C185.8 36.12 185.066 36.2533 184.426 36.52C183.786 36.7867 183.293 37.1733 182.946 37.68C182.6 38.16 182.426 38.72 182.426 39.36C182.426 40.0533 182.653 40.6667 183.106 41.2C183.56 41.7067 184.24 42.1067 185.146 42.4L190.866 44.24C193.266 45.0133 195.053 46.0933 196.226 47.48C197.426 48.8667 198.026 50.56 198.026 52.56C198.026 54.2933 197.573 55.84 196.666 57.2C195.76 58.5333 194.506 59.5867 192.906 60.36C191.333 61.1067 189.493 61.48 187.386 61.48ZM202.445 61V31.2H208.645V61H202.445ZM213.929 61V31.2H219.929L231.089 46H228.289L239.129 31.2H245.129V61H238.929V38.04L241.409 38.6L229.929 53.4H229.129L218.049 38.6L220.129 38.04V61H213.929Z" fill="white"/>
<defs>
<clipPath id="clip0_65_2">
<rect width="122" height="113.574" fill="white"/>
</clipPath>
</defs>
</svg>
